<svg xmlns="http://www.w3.org/2000/svg" viewBox="0 0 280 200" width="280" height="200">
  
  <rect width="280" height="200" fill="#0a0a0a"></rect>
  <rect x="0" y="0" width="280" height="20" fill="#141414"></rect>
  <text x="10" y="13" font-family="&#39;Open Sans&#39;, sans-serif" font-weight="700" font-size="8" fill="#fff">LICENSE CLOUD</text>
  <text x="270" y="13" text-anchor="end" font-family="monospace" font-size="6" fill="#666">distribuitor / portofoliu</text>

  
  <rect x="10" y="28" width="80" height="42" fill="#141414" stroke="#262626"></rect>
  <text x="16" y="40" font-family="monospace" font-size="5" fill="#666">LICENȚE ACTIVE</text>
  <text x="16" y="58" font-family="&#39;Open Sans&#39;, sans-serif" font-weight="700" font-size="16" fill="#fff">12,847</text>
  <text x="16" y="66" font-family="monospace" font-size="5" fill="#FF4931">+ 142 luna asta</text>

  <rect x="96" y="28" width="80" height="42" fill="#141414" stroke="#262626"></rect>
  <text x="102" y="40" font-family="monospace" font-size="5" fill="#666">REVENUE / LUNĂ</text>
  <text x="102" y="58" font-family="&#39;Open Sans&#39;, sans-serif" font-weight="700" font-size="16" fill="#fff">€1.2M</text>
  <text x="102" y="66" font-family="monospace" font-size="5" fill="#FF4931">+ 8.4% MoM</text>

  <rect x="182" y="28" width="88" height="42" fill="#141414" stroke="#262626"></rect>
  <text x="188" y="40" font-family="monospace" font-size="5" fill="#666">EXPIRĂ ÎN 30 ZILE</text>
  <text x="188" y="58" font-family="&#39;Open Sans&#39;, sans-serif" font-weight="700" font-size="16" fill="#FF4931">847</text>
  <text x="188" y="66" font-family="monospace" font-size="5" fill="#888">→ acțiune cerută</text>

  
  <rect x="10" y="78" width="166" height="78" fill="#141414" stroke="#262626"></rect>
  <text x="16" y="90" font-family="monospace" font-size="5" fill="#666">CRT/LUNĂ — ULTIMELE 12 LUNI</text>
  
  <rect x="18" y="142" width="10" height="8" fill="#333"></rect>
  <rect x="32" y="138" width="10" height="12" fill="#333"></rect>
  <rect x="46" y="132" width="10" height="18" fill="#333"></rect>
  <rect x="60" y="128" width="10" height="22" fill="#444"></rect>
  <rect x="74" y="120" width="10" height="30" fill="#555"></rect>
  <rect x="88" y="116" width="10" height="34" fill="#666"></rect>
  <rect x="102" y="112" width="10" height="38" fill="#777"></rect>
  <rect x="116" y="108" width="10" height="42" fill="#888"></rect>
  <rect x="130" y="104" width="10" height="46" fill="#FF4931" opacity="0.6"></rect>
  <rect x="144" y="98" width="10" height="52" fill="#FF4931" opacity="0.8"></rect>
  <rect x="158" y="94" width="10" height="56" fill="#FF4931"></rect>
  <line x1="18" y1="151" x2="170" y2="151" stroke="#262626"></line>

  
  <rect x="182" y="78" width="88" height="78" fill="#141414" stroke="#262626"></rect>
  <text x="188" y="90" font-family="monospace" font-size="5" fill="#666">VENDORI</text>

  <rect x="188" y="98" width="3" height="8" fill="#FF4931"></rect>
  <text x="195" y="105" font-family="monospace" font-size="6" fill="#fff">Microsoft</text>
  <text x="262" y="105" text-anchor="end" font-family="monospace" font-size="6" fill="#FF4931">62%</text>

  <rect x="188" y="112" width="3" height="8" fill="#FF4931" opacity="0.7"></rect>
  <text x="195" y="119" font-family="monospace" font-size="6" fill="#ccc">Bitdefender</text>
  <text x="262" y="119" text-anchor="end" font-family="monospace" font-size="6" fill="#888">21%</text>

  <rect x="188" y="126" width="3" height="8" fill="#FF4931" opacity="0.5"></rect>
  <text x="195" y="133" font-family="monospace" font-size="6" fill="#ccc">Adobe</text>
  <text x="262" y="133" text-anchor="end" font-family="monospace" font-size="6" fill="#888">11%</text>

  <rect x="188" y="140" width="3" height="8" fill="#FF4931" opacity="0.3"></rect>
  <text x="195" y="147" font-family="monospace" font-size="6" fill="#ccc">Alți</text>
  <text x="262" y="147" text-anchor="end" font-family="monospace" font-size="6" fill="#888">6%</text>

  
  <rect x="10" y="164" width="260" height="26" fill="#0f0f0f" stroke="#1f1f1f"></rect>
  <text x="16" y="174" font-family="monospace" font-size="5" fill="#666">ACTIVITATE RECENTĂ</text>
  <circle cx="20" cy="184" r="1.5" fill="#FF4931"></circle>
  <text x="26" y="186" font-family="monospace" font-size="5" fill="#ccc">Reseller #842 a achiziționat 50× M365 E3 Business</text>
  <text x="262" y="186" text-anchor="end" font-family="monospace" font-size="5" fill="#666">acum 2 min</text>
</svg>