<svg xmlns="http://www.w3.org/2000/svg" viewBox="0 0 280 200" width="280" height="200">
  
  <rect width="280" height="200" fill="#0a0a0a"></rect>
  <rect x="0" y="0" width="280" height="20" fill="#141414"></rect>
  <circle cx="10" cy="10" r="2" fill="#FF4931"></circle>
  <circle cx="18" cy="10" r="2" fill="#333"></circle>
  <circle cx="26" cy="10" r="2" fill="#333"></circle>
  <text x="140" y="13" text-anchor="middle" font-family="monospace" font-size="7" fill="#666">fonduri.ai/chat</text>

  
  <rect x="12" y="32" width="160" height="34" fill="#1a1a1a" stroke="#262626"></rect>
  <text x="20" y="44" font-family="monospace" font-size="6" fill="#888">EXPERTUL TĂU</text>
  <text x="20" y="55" font-family="monospace" font-size="7" fill="#fff">Ce domeniu</text>
  <text x="20" y="63" font-family="monospace" font-size="7" fill="#fff">de activitate?</text>

  
  <rect x="100" y="74" width="168" height="22" fill="#FF4931"></rect>
  <text x="108" y="88" font-family="monospace" font-size="7" fill="#fff">Producție industrială, Cluj</text>

  
  <rect x="12" y="104" width="190" height="14" fill="#1a1a1a" stroke="#262626"></rect>
  <rect x="12" y="104" width="3" height="14" fill="#FF4931"></rect>
  <text x="20" y="113" font-family="monospace" font-size="6" fill="#fff">POR 2.1 — Microîntreprinderi</text>
  <text x="174" y="113" font-family="monospace" font-size="6" fill="#FF4931">96%</text>

  <rect x="12" y="122" width="190" height="14" fill="#1a1a1a" stroke="#262626"></rect>
  <rect x="12" y="122" width="3" height="14" fill="#FF4931"></rect>
  <text x="20" y="131" font-family="monospace" font-size="6" fill="#fff">PNRR C9 — Digitalizare</text>
  <text x="174" y="131" font-family="monospace" font-size="6" fill="#FF4931">87%</text>

  <rect x="12" y="140" width="190" height="14" fill="#1a1a1a" stroke="#262626"></rect>
  <rect x="12" y="140" width="3" height="14" fill="#FF4931"></rect>
  <text x="20" y="149" font-family="monospace" font-size="6" fill="#fff">Horizon Europe — Pillar II</text>
  <text x="174" y="149" font-family="monospace" font-size="6" fill="#FF4931">71%</text>

  
  <rect x="208" y="32" width="60" height="64" fill="#141414" stroke="#262626"></rect>
  <text x="214" y="42" font-family="monospace" font-size="5" fill="#666">GHIDURI</text>
  <text x="214" y="42" font-family="monospace" font-size="5" fill="#666">SCANATE</text>
  <text x="214" y="62" font-family="&#39;Open Sans&#39;, sans-serif" font-weight="700" font-size="14" fill="#FF4931">2.847</text>
  <text x="214" y="78" font-family="monospace" font-size="5" fill="#666">PROGRAME</text>
  <text x="214" y="90" font-family="&#39;Open Sans&#39;, sans-serif" font-weight="700" font-size="14" fill="#fff">412</text>

  
  <rect x="12" y="170" width="256" height="18" fill="#1a1a1a" stroke="#262626"></rect>
  <text x="18" y="182" font-family="monospace" font-size="6" fill="#444">Întreabă orice despre eligibilitate...</text>
  <rect x="248" y="173" width="14" height="12" fill="#FF4931"></rect>
</svg>