<svg xmlns="http://www.w3.org/2000/svg" viewBox="0 0 480 360" width="480" height="360" fill="none">
  

  
  <g stroke="#FFFFFF" stroke-width="1" opacity="0.05">
    <line x1="0" y1="60" x2="480" y2="60"></line>
    <line x1="0" y1="120" x2="480" y2="120"></line>
    <line x1="0" y1="180" x2="480" y2="180"></line>
    <line x1="0" y1="240" x2="480" y2="240"></line>
    <line x1="0" y1="300" x2="480" y2="300"></line>
    <line x1="80" y1="0" x2="80" y2="360"></line>
    <line x1="160" y1="0" x2="160" y2="360"></line>
    <line x1="240" y1="0" x2="240" y2="360"></line>
    <line x1="320" y1="0" x2="320" y2="360"></line>
    <line x1="400" y1="0" x2="400" y2="360"></line>
  </g>

  
  <g stroke="#FFFFFF" stroke-width="1" opacity="0.35">
    
    <line x1="300" y1="180" x2="80" y2="60"></line>
    <line x1="300" y1="180" x2="120" y2="140"></line>
    <line x1="300" y1="180" x2="60" y2="220"></line>
    <line x1="300" y1="180" x2="140" y2="280"></line>
    <line x1="300" y1="180" x2="220" y2="80"></line>
    <line x1="300" y1="180" x2="200" y2="320"></line>
    <line x1="300" y1="180" x2="380" y2="80"></line>
    <line x1="300" y1="180" x2="420" y2="140"></line>
    <line x1="300" y1="180" x2="440" y2="240"></line>
    <line x1="300" y1="180" x2="380" y2="300"></line>
    
    <line x1="120" y1="140" x2="220" y2="80" opacity="0.5"></line>
    <line x1="60" y1="220" x2="140" y2="280" opacity="0.5"></line>
    <line x1="380" y1="80" x2="420" y2="140" opacity="0.5"></line>
    <line x1="440" y1="240" x2="380" y2="300" opacity="0.5"></line>
  </g>

  
  <g stroke="#FF4931" stroke-width="1.5" opacity="0.9">
    <line x1="300" y1="180" x2="220" y2="80"></line>
    <line x1="300" y1="180" x2="140" y2="280"></line>
    <line x1="300" y1="180" x2="420" y2="140"></line>
  </g>

  
  <g fill="none" stroke="#FFFFFF" stroke-width="1.5" opacity="0.85">
    <rect x="74" y="54" width="12" height="12"></rect>
    <rect x="114" y="134" width="12" height="12"></rect>
    <rect x="54" y="214" width="12" height="12"></rect>
    <rect x="134" y="274" width="12" height="12"></rect>
    <rect x="214" y="74" width="12" height="12"></rect>
    <rect x="194" y="314" width="12" height="12"></rect>
    <rect x="374" y="74" width="12" height="12"></rect>
    <rect x="414" y="134" width="12" height="12"></rect>
    <rect x="434" y="234" width="12" height="12"></rect>
    <rect x="374" y="294" width="12" height="12"></rect>
  </g>

  
  <g fill="#FFFFFF" opacity="0.7">
    <rect x="216" y="76" width="8" height="8"></rect>
    <rect x="376" y="136" width="8" height="8"></rect>
    <rect x="56" y="216" width="8" height="8"></rect>
  </g>

  
  <g fill="#FF4931" opacity="0.95">
    <rect x="258" y="126" width="5" height="5"></rect>
    <rect x="218" y="234" width="5" height="5"></rect>
    <rect x="358" y="158" width="5" height="5"></rect>
  </g>

  
  <g>
    
    <rect x="282" y="162" width="36" height="36" fill="#FF4931" opacity="0.15"></rect>
    
    <rect x="290" y="170" width="20" height="20" fill="#FF4931"></rect>
    
    <rect x="296" y="176" width="8" height="8" fill="#000"></rect>
  </g>

  
  <g fill="#FFFFFF" opacity="0.4">
    <rect x="20" y="100" width="3" height="3"></rect>
    <rect x="40" y="170" width="3" height="3"></rect>
    <rect x="30" y="320" width="3" height="3"></rect>
    <rect x="460" y="50" width="3" height="3"></rect>
    <rect x="470" y="190" width="3" height="3"></rect>
    <rect x="450" y="340" width="3" height="3"></rect>
  </g>
</svg>