<svg width="120" height="121" viewBox="0 0 120 121" fill="none" xmlns="http://www.w3.org/2000/svg">
<g id="TVLtech_logo_white_22.07-03">
<g id="Group">
<path id="Vector" d="M105.912 54.5831L66.1684 14.8391V14.8271H14.0645V66.9311L53.8204 106.687H105.924L105.912 54.5831ZM103.104 54.5831H66.1684V17.6591L103.104 54.5831ZM16.0685 16.8191H64.1764V54.5831H53.8325V64.9271H16.0685V16.8191ZM64.1764 56.5751V64.9271H55.8245V56.5751H64.1764ZM16.8845 66.9191H53.8325V103.855L16.8845 66.9191ZM103.932 104.683H55.8125V66.9191H66.1564V56.5751H103.932V104.683Z" fill="#FFFFFF"></path>
<path id="Vector_2" d="M35.521 32.1309V34.1229H33.493V47.8029H31.477V35.1789L29.209 34.1229V32.1309H35.521Z" fill="#FFFFFF"></path>
<path id="Vector_3" d="M44.4364 32.1313L42.0844 47.8033H39.0844L36.7324 32.1313H38.7844L40.1044 40.9513L40.2844 42.1393C40.3084 42.2833 40.4284 42.3913 40.5724 42.3913C40.7164 42.3913 40.8364 42.2833 40.8604 42.1393L41.0404 40.9513L42.3604 32.1313H44.4364Z" fill="#FFFFFF"></path>
<path id="Vector_4" d="M51.2043 45.8113V47.8033H46.3203V32.1313H48.3363V45.8113H51.2043Z" fill="#FFFFFF"></path>
<path id="Vector_5" d="M66.168 77.2872L68.436 78.3432V91.0272H70.464V79.2912V77.2872H72.504V75.2832H66.168V77.2872Z" fill="#FFFFFF"></path>
<path id="Vector_6" d="M76.6195 84.1512H79.6675V82.1472H76.6195L76.5835 77.2872H79.7275V75.2832H75.8995H74.6035V77.2872V78.4512V91.0272H74.8315H79.7275H79.7995V89.0232H76.6195V84.1512Z" fill="#FFFFFF"></path>
<path id="Vector_7" d="M81.8887 89.0232V91.0272H86.8687V89.0232H83.9167V77.2872H86.8687V75.2832H81.8887V89.0232Z" fill="#FFFFFF"></path>
<path id="Vector_8" d="M93.7441 75.2832V82.1472H91.2721V75.2832H89.2441V91.0272H91.2721V84.1512H93.7441V91.0272H95.7721V75.2832H93.7441Z" fill="#FFFFFF"></path>
</g>
</g>
</svg>